# xmcd
#
# Track frame offsets:
# 150
# 12159
# 29727
# 43210
# 58214
# 69194
# 86146
# 95613
# 107886
# 121623
# 138321
# 153692
# 167352
# 182156
#
# Disc length: 2631 seconds
#
#
# Revision: 0
# Processed by: cddbd v1.5.2PL0 Copyright (c) Steve Scherf et al.
# Submitted via: FreeRIP 2.96 
#
DISCID=be0a450e
DTITLE=Pedro Bento and Zé da Estrada - Grandes Sucessos
DYEAR=2007
DGENRE=Sertanejo
TTITLE0=Flor Do Ipê
TTITLE1=Mágoa De Boiadeiro
TTITLE2=Boêmio Colarinho
TTITLE3=Travessia Do Araguaia
TTITLE4=Gavião Penacho
TTITLE5=Voa, Paloma, Voa
TTITLE6=De Gole Em Gole
TTITLE7=O Mineiro E O Italiano
TTITLE8=Mulher Do Padrão
TTITLE9=Terra Roxa
TTITLE10=Grâ-Fino Na Roça
TTITLE11=Quando Se Ama Em Goiás
TTITLE12=Quinze Noites De Saudade
TTITLE13=Flor Da Primavera
EXTD=Ano 2007 - M.P.A.
EXTT0=
EXTT1=
EXTT2=
EXTT3=
EXTT4=
EXTT5=
EXTT6=
EXTT7=
EXTT8=
EXTT9=
EXTT10=
EXTT11=
EXTT12=
EXTT13=
PLAYORDER=
